<svg xmlns="http://www.w3.org/2000/svg" viewBox="0 0 100 100"><defs><style>.cls-1{fill:#999868;}.cls-2{fill:#e58057;}.cls-3{fill:#666534;}.cls-4{fill:#996434;}.cls-5{fill:#cc6436;}.cls-6{fill:#ff9566;}.cls-7{fill:#6b1818;}</style></defs><title>avatar-prof-flat</title><g id="Layer_7" data-name="Layer 7"><path class="cls-1" d="M49.93,73.9a26.63,26.63,0,0,0-21,10.24,2,2,0,0,0,0,2.55c7,8.2,35.5,8.16,42,0a2,2,0,0,0,0-2.49A26.63,26.63,0,0,0,49.93,73.9Z"/><rect class="cls-2" x="45.84" y="58.53" width="8.2" height="20.77" rx="3.14" ry="3.14"/><path class="cls-3" d="M56.47,74.71c0,4.18-3,9.34-6.47,9.34v8.77a46.37,46.37,0,0,0,13.82-1.89c-2-3.52-.71-9.69,1.08-12.44A30.41,30.41,0,0,0,56.47,74.71Z"/><path class="cls-3" d="M43.53,74.71c0,4.18,3,9.34,6.47,9.34v8.77a46.75,46.75,0,0,1-13.79-1.94c2-3.52.68-9.64-1.11-12.39A30.41,30.41,0,0,1,43.53,74.71Z"/><polygon class="cls-4" points="58.21 76.68 59.54 73.3 64.36 75.4 62.77 78.73 58.21 76.68"/><polygon class="cls-4" points="41.79 76.68 40.46 73.3 35.64 75.4 37.23 78.73 41.79 76.68"/><rect class="cls-2" x="45.84" y="58.53" width="8.2" height="20.77" rx="3.14" ry="3.14"/><ellipse class="cls-2" cx="68.95" cy="49.47" rx="6.1" ry="4.44" transform="translate(-14.78 63.24) rotate(-45)"/><ellipse class="cls-2" cx="31.05" cy="49.47" rx="4.44" ry="6.1" transform="translate(-25.89 36.44) rotate(-45)"/><path class="cls-5" d="M33.22,49.3a5.23,5.23,0,0,0-3.8-2.24.82.82,0,1,0,0,1.64C31,48.7,32.53,51,33.07,52,33.44,52.81,34.15,50.44,33.22,49.3Z"/><path class="cls-5" d="M67.35,52c.54-1.06,2-3.34,3.66-3.34a.82.82,0,0,0,0-1.64,5.23,5.23,0,0,0-3.8,2.24C66.47,50.46,66.72,53.09,67.35,52Z"/><path class="cls-6" d="M65.6,37.74a15.63,15.63,0,0,0-31.26,0V48.63a15.63,15.63,0,0,0,31.26,0Z"/><path class="cls-3" d="M50,32.37A27.5,27.5,0,0,1,65.66,37v7c3.29,0,7.43-2.8,7.43-5.46s-3.3-6.22-3.3-9.26S64.92,13.38,50,13.38,30.21,26.22,30.21,29.26s-3.3,6.59-3.3,9.26S31,44,34.34,44V37A27.16,27.16,0,0,1,50,32.37Z"/><ellipse class="cls-7" cx="43.38" cy="44.53" rx="1.38" ry="2.51"/><ellipse class="cls-7" cx="56.55" cy="44.53" rx="1.38" ry="2.51"/><path class="cls-7" d="M46.62,40.16a13.19,13.19,0,0,1-2.83-.45c-1.18-.27-2.65-.62-3.07-.2a.82.82,0,1,1-1.16-1.16c1.06-1.06,2.86-.64,4.6-.24a12.12,12.12,0,0,0,2.46.41.82.82,0,1,1,0,1.64Z"/><path class="cls-7" d="M53.31,40.16a.82.82,0,1,1,0-1.64,12.12,12.12,0,0,0,2.46-.41c1.74-.4,3.54-.82,4.6.24a.82.82,0,1,1-1.16,1.16c-.42-.42-1.89-.08-3.07.2A13.19,13.19,0,0,1,53.31,40.16Z"/><path class="cls-7" d="M50,57.17a7,7,0,0,1-5-1.84.82.82,0,0,1,1.21-1.11A5.39,5.39,0,0,0,50,55.53c2.5,0,3.38-1.2,3.39-1.21a.82.82,0,1,1,1.36.92C54.66,55.32,53.37,57.17,50,57.17Z"/><path class="cls-4" d="M65.66,37V48.63A15.57,15.57,0,0,1,58,62.08c-2.92,1.69-5.3-1.46-8-1.46s-5.08,3.15-8,1.46a15.57,15.57,0,0,1-7.66-13.45V37L31,38.25s.59,11.85,2.52,16.53C35.71,60,39.72,65.7,50,65.7S64.29,60,66.43,54.78C68.36,50.1,69,38.25,69,38.25Z"/><path class="cls-4" d="M32.52,34.18c3.54-3.54,10.87-6.11,17.42-6.11H50c6.55,0,13.88,2.57,17.42,6.11A.82.82,0,0,0,68.58,33C64.76,29.2,56.95,26.43,50,26.43h-.07C43,26.43,35.18,29.2,31.36,33a.82.82,0,0,0,1.16,1.16Z"/><g id="_Group_" data-name="&lt;Group&gt;"><path class="cls-4" d="M59,88.19v3.88c-.38.07-.75.15-1.13.21-1,.15-2.21.29-3.48.39V88.19Z"/><path class="cls-4" d="M45.58,88.19v4.46C44,92.52,42.5,92.31,41,92V88.19Z"/></g></g></svg>