<svg xmlns="http://www.w3.org/2000/svg" viewBox="0 0 100 100"><defs><style>.cls-1{fill:#87304b;}.cls-2{fill:#ccc;}.cls-3{fill:#db5e88;}.cls-4{fill:#1a1a1a;}.cls-5{fill:#333;}.cls-6{fill:#999;}.cls-7{fill:#e58057;}.cls-8{fill:#ff9566;}.cls-9{fill:#6b1818;}.cls-10{fill:#cc6436;}</style></defs><title>avatar-prof-flat</title><g id="Layer_5" data-name="Layer 5"><path class="cls-1" d="M72.81,25.15c-1.79-1.79-3,.32-6.5-1.29a22.47,22.47,0,0,0-3.06-2,32.63,32.63,0,0,1-2.6-2.36C56,14.89,48.92,16.1,44.22,19.26c-9.21,2-15.63,8.19-15.63,12.3,0,4.92,2.46,17.91,2.46,17.91H69S71.41,37.91,71.41,32a6.8,6.8,0,0,0-.47-2.39C72.78,27.84,73.66,26,72.81,25.15Z"/><path class="cls-2" d="M50,73.9A26.63,26.63,0,0,0,29,84.14a2,2,0,0,0,0,2.55c7,8.2,35.5,8.16,42,0a2,2,0,0,0,0-2.49A26.63,26.63,0,0,0,50,73.9Z"/><path class="cls-3" d="M53.43,92.73s-3.17-9.85-2.54-10.48a18.65,18.65,0,0,1,2.54-1.75l-3.46-3L46.54,80.3a28,28,0,0,1,2.53,1.94c.63.63-2.54,10.48-2.54,10.48Z"/><path class="cls-4" d="M43.42,74.72A26.71,26.71,0,0,0,29,84.19a2,2,0,0,0-.43,1.24A2,2,0,0,0,29,86.69c3,3.51,9.94,5.5,17.39,6Z"/><path class="cls-5" d="M40.23,91.3a.82.82,0,0,1-.76-.52l-1.33-3.5a.82.82,0,0,1,.35-1l1.37-.8-2.67-1a.82.82,0,0,1-.48-1.05L39.07,77a.82.82,0,0,1,1.54.56l-2.09,5.69,3.53,1.31A.82.82,0,0,1,42.18,86l-2.26,1.32L41,90.19a.82.82,0,0,1-.76,1.12Z"/><path class="cls-4" d="M56.58,74.72A26.71,26.71,0,0,1,71,84.19a2,2,0,0,1,.43,1.24A2,2,0,0,1,71,86.69c-3,3.51-9.94,5.5-17.39,6Z"/><path class="cls-5" d="M59.77,91.3a.82.82,0,0,0,.76-.52l1.33-3.5a.82.82,0,0,0-.35-1l-1.37-.8,2.67-1a.82.82,0,0,0,.48-1.05L60.93,77a.82.82,0,0,0-1.54.56l2.09,5.69-3.53,1.31A.82.82,0,0,0,57.82,86l2.26,1.32L59,90.19a.82.82,0,0,0,.76,1.12Z"/><path class="cls-6" d="M50,77.53l6.45,5.54.16-8.35-2.51-.5C54.81,76.56,50,77.53,50,77.53Z"/><path class="cls-6" d="M50,77.53,43.1,83.07l.32-8.35,2.42-.47C45.1,76.59,50,77.53,50,77.53Z"/><path class="cls-7" d="M54.08,74.22h0V62.63a4.11,4.11,0,0,0-4.1-4.1h0a4.11,4.11,0,0,0-4.1,4.1V74.26C44.14,76.14,50,77.53,50,77.53S55.93,76.07,54.08,74.22Z"/><ellipse class="cls-7" cx="68.95" cy="49.47" rx="6.1" ry="4.44" transform="translate(-14.79 63.25) rotate(-45)"/><ellipse class="cls-7" cx="31.05" cy="49.47" rx="4.44" ry="6.1" transform="translate(-25.89 36.44) rotate(-45)"/><path class="cls-8" d="M60.89,34.06c-12,0-19.18-5.37-21.53-7.72,0,0,0,0,0-.07a15.59,15.59,0,0,0-5,11.47V50.27c0,8.63,7,14,15.63,14s15.63-5.36,15.63-14V37.74A15.62,15.62,0,0,0,65,33.31,12.31,12.31,0,0,1,60.89,34.06Z"/><ellipse class="cls-9" cx="43.38" cy="44.53" rx="1.38" ry="2.51"/><ellipse class="cls-9" cx="56.55" cy="44.53" rx="1.38" ry="2.51"/><path class="cls-9" d="M44.42,39.31a21.09,21.09,0,0,0,2.2.17.82.82,0,0,0,0-1.64,19.63,19.63,0,0,1-2-.16c-1.94-.21-3.94-.43-5,.67a.82.82,0,1,0,1.16,1.16C41.27,39,43,39.16,44.42,39.31Z"/><path class="cls-9" d="M55.34,37.68a19.63,19.63,0,0,1-2,.16.82.82,0,1,0,0,1.64,21.09,21.09,0,0,0,2.2-.17c1.4-.15,3.15-.35,3.7.2a.82.82,0,0,0,1.16-1.16C59.27,37.25,57.27,37.47,55.34,37.68Z"/><path class="cls-9" d="M53.43,52.53s-.93.89-3.46.89a6.82,6.82,0,0,1-3.93-1,.82.82,0,0,0-1,1.28,8.18,8.18,0,0,0,5,1.34c3.27,0,4.54-1.28,4.67-1.43a.82.82,0,0,0-1.21-1.11Z"/><path class="cls-10" d="M33.22,49.3a5.23,5.23,0,0,0-3.8-2.24.82.82,0,1,0,0,1.64C31,48.7,32.53,51,33.07,52,33.44,52.81,34.15,50.44,33.22,49.3Z"/><path class="cls-10" d="M67.35,52c.54-1.06,2-3.34,3.66-3.34a.82.82,0,0,0,0-1.64,5.23,5.23,0,0,0-3.8,2.24C66.47,50.46,66.72,53.09,67.35,52Z"/></g></svg>