<svg xmlns="http://www.w3.org/2000/svg" viewBox="0 0 100 100"><defs><style>.cls-1{fill:#999;}.cls-2{fill:#fff;}.cls-3{fill:#f6a821;}.cls-4{fill:#ccc;}.cls-5{fill:#e58057;}.cls-6{fill:#cc6436;}.cls-7{fill:#ff9566;}.cls-8{fill:#6b1818;}.cls-9{fill:#333;}</style></defs><title>avatar-prof-flat</title><g id="Layer_10" data-name="Layer 10"><path class="cls-1" d="M65.46,46.71c2.28-2.28,8.07-5.09,8.07-8.66s-2.75-2.75-4.31-4.31S66,28.11,63.74,30.35a24.49,24.49,0,0,1,1.86,8.59C65.6,43.29,65.46,46.71,65.46,46.71Z"/><path class="cls-1" d="M34.62,46.71c-2.28-2.28-8.07-5.09-8.07-8.66s2.75-2.75,4.31-4.31,3.23-5.63,5.47-3.38a24.49,24.49,0,0,0-1.86,8.59C34.48,43.29,34.62,46.71,34.62,46.71Z"/><path class="cls-2" d="M49.93,73.9a26.63,26.63,0,0,0-21,10.24,2,2,0,0,0,0,2.55c7,8.2,35.5,8.16,42,0a2,2,0,0,0,0-2.49A26.63,26.63,0,0,0,49.93,73.9Z"/><path class="cls-1" d="M51.69,80.63l3.06,2.44,1.79-8.28-2.08-.44C55.19,76.69,51.69,80.63,51.69,80.63Z"/><path class="cls-3" d="M53.39,92.73s-3.17-7.83-2.54-8.46.84-3,.84-3h-3.5s.2,2.41.84,3-2.54,8.46-2.54,8.46Z"/><path class="cls-1" d="M48.16,80.63,45.1,83.07l-1.79-8.28,2.08-.44C44.66,76.69,48.16,80.63,48.16,80.63Z"/><path class="cls-4" d="M58.75,92.14c5.45-.91,10.06-2.73,12.23-5.46a2,2,0,0,0,0-2.49,26.71,26.71,0,0,0-14.44-9.47Z"/><path class="cls-4" d="M41.16,92.14c-5.45-.91-10.06-2.73-12.23-5.46a2,2,0,0,1,0-2.49,26.71,26.71,0,0,1,14.44-9.47Z"/><path class="cls-5" d="M54,74.22h0V62.63a4.1,4.1,0,0,0-8.2,0V74.2h0c-1.83,1.83,2.9,7.75,4.1,7.75S55.88,76.07,54,74.22Z"/><ellipse class="cls-5" cx="68.95" cy="49.47" rx="6.1" ry="4.44" transform="translate(-14.79 63.25) rotate(-45)"/><ellipse class="cls-5" cx="31.05" cy="49.47" rx="4.44" ry="6.1" transform="translate(-25.89 36.44) rotate(-45)"/><path class="cls-6" d="M33.22,49.3a5.23,5.23,0,0,0-3.8-2.24.82.82,0,1,0,0,1.64C31,48.7,32.53,51,33.07,52,33.44,52.81,34.15,50.44,33.22,49.3Z"/><path class="cls-6" d="M67.35,52c.54-1.06,2-3.34,3.66-3.34a.82.82,0,0,0,0-1.64,5.23,5.23,0,0,0-3.8,2.24C66.47,50.46,66.72,53.09,67.35,52Z"/><path class="cls-7" d="M65.6,37.74a15.63,15.63,0,0,0-31.26,0V48.63a15.63,15.63,0,0,0,31.26,0Z"/><ellipse class="cls-8" cx="43.38" cy="44.53" rx="1.38" ry="2.51"/><ellipse class="cls-8" cx="56.55" cy="44.53" rx="1.38" ry="2.51"/><path class="cls-8" d="M40.14,38.52a.82.82,0,0,1-.58-1.4c1.34-1.35,4.3-1.34,6.67-1.33h.39a.82.82,0,0,1,0,1.64h-.4c-1.85,0-4.64,0-5.51.85A.82.82,0,0,1,40.14,38.52Z"/><path class="cls-8" d="M59.79,38.52a.82.82,0,0,1-.58-.24c-.86-.86-3.66-.86-5.51-.85h-.4a.82.82,0,0,1,0-1.64h.39c2.37,0,5.32,0,6.67,1.33a.82.82,0,0,1-.58,1.4Z"/><path class="cls-8" d="M50,57.68a7,7,0,0,1-5-1.84.82.82,0,0,1,1.21-1.11A5.39,5.39,0,0,0,50,56c2.48,0,3.36-1.17,3.39-1.22a.83.83,0,0,1,1.14-.19.81.81,0,0,1,.21,1.12C54.66,55.83,53.37,57.68,50,57.68Z"/><path class="cls-9" d="M66.82,44.85l-3.77-1A6.58,6.58,0,0,0,50,43.71h-.11a6.58,6.58,0,0,0-13.08.18l-3.66,1a.82.82,0,0,0,.21,1.61l.21,0,3.3-.87a6.58,6.58,0,0,0,13-.22H50a6.58,6.58,0,0,0,13,.19l3.4.9.21,0a.82.82,0,0,0,.21-1.61ZM43.33,49.47a4.95,4.95,0,1,1,4.95-4.95A5,5,0,0,1,43.33,49.47Zm13.17,0a4.95,4.95,0,1,1,4.95-4.95A5,5,0,0,1,56.5,49.47Z"/><path class="cls-1" d="M49.92,50.8c-1.87,0-5.15,1-5.15,2.59s2.58,1.78,2.58,1,2.58,1.3,2.58-.2c0,1.5,2.58-.61,2.58.2s2.58.68,2.58-1S51.78,50.8,49.92,50.8Z"/></g></svg>