<svg xmlns="http://www.w3.org/2000/svg" viewBox="0 0 100 100"><defs><style>.cls-1{fill:#999;}.cls-2{fill:#1a1a1a;}.cls-3{fill:#e58057;}.cls-4{fill:#ccc;}.cls-5{fill:#ff9566;}.cls-6{fill:#6b1818;}.cls-7{fill:#333;}.cls-8{fill:#cc6436;}</style></defs><title>avatar-prof-flat</title><g id="Layer_20" data-name="Layer 20"><path class="cls-1" d="M30.64,49.47V32.6c0-4.92,7.17-13.95,19.36-13.95S69.36,27.15,69.36,33V49.47Z"/><path class="cls-2" d="M49.93,72.35c-20.22,0-22.4,13.62-21.78,14.34,7,8.2,37.14,8.16,43.65,0C72.38,86,70.16,72.35,49.93,72.35Z"/><path class="cls-1" d="M49.93,85.09,62,74.5a30.64,30.64,0,0,0-12.05-2.15,30.57,30.57,0,0,0-12,2.15Z"/><polygon class="cls-2" points="51.24 79.47 52.8 76.84 49.94 75.83 47.07 76.84 48.63 79.47 46.81 82.34 49.94 85.08 53.06 82.34 51.24 79.47"/><path class="cls-3" d="M49.93,75.83l-4.1-3.07V62.63a4.11,4.11,0,0,1,4.1-4.1h0a4.11,4.11,0,0,1,4.1,4.1V72.76Z"/><polygon class="cls-4" points="49.94 75.83 54.03 72.76 54.03 70.84 56.25 71.53 55.63 77.81 49.94 75.83"/><polygon class="cls-4" points="49.97 75.83 45.87 72.76 45.87 70.84 43.65 71.53 44.27 77.81 49.97 75.83"/><ellipse class="cls-3" cx="68.95" cy="49.47" rx="6.1" ry="4.44" transform="translate(-14.79 63.24) rotate(-45)"/><ellipse class="cls-3" cx="31.05" cy="49.47" rx="4.44" ry="6.1" transform="translate(-25.89 36.44) rotate(-45)"/><path class="cls-5" d="M60.62,26.31c-14.62-5-18.07,5.45-24.92,5.45h-.18a15.58,15.58,0,0,0-1.19,6V48.63c0,8.63,5.44,16,15.63,16s15.63-7.41,15.63-16V37.74A15.58,15.58,0,0,0,60.62,26.31Z"/><ellipse class="cls-6" cx="43.2" cy="44.79" rx="1.38" ry="2.51"/><ellipse class="cls-6" cx="56.36" cy="44.79" rx="1.38" ry="2.51"/><path class="cls-4" d="M60.69,26.34c-14.68-5-18.12,5.43-25,5.43C28,31.77,35,16.51,50,16.51,57.34,16.51,60.69,21.86,60.69,26.34Z"/><path class="cls-6" d="M46.62,39.56a14.63,14.63,0,0,1-2.69-.36c-1.23-.24-2.77-.54-3.22-.09a.82.82,0,1,1-1.16-1.16c1.07-1.07,2.91-.7,4.69-.35a13.54,13.54,0,0,0,2.37.33.82.82,0,0,1,0,1.64Z"/><path class="cls-6" d="M53.31,39.56a.82.82,0,0,1,0-1.64,13.54,13.54,0,0,0,2.37-.33c1.78-.35,3.62-.71,4.69.35a.82.82,0,1,1-1.16,1.16c-.45-.45-2-.15-3.22.09A14.63,14.63,0,0,1,53.31,39.56Z"/><path class="cls-6" d="M50,56.77a10.6,10.6,0,0,1-4.89-1.29.82.82,0,0,1,.83-1.41h0A9.06,9.06,0,0,0,50,55.14a6.46,6.46,0,0,0,3.54-1,.82.82,0,0,1,1,1.31A8,8,0,0,1,50,56.77Z"/><path class="cls-7" d="M66.71,44.54l-1.55-.29s0-.06,0-.1c0-4.58-3.45-4.58-7.44-4.58-3.4,0-6.72.33-7.33,3.83h-.85c-.61-3.5-3.93-3.83-7.33-3.83-4,0-7.44,0-7.44,4.58,0,0,0,.06,0,.1l-1.55.29a.82.82,0,0,0,.15,1.63h.15L35,45.88c.65,2.72,2.88,4.35,6.15,4.35,5.45,0,8.31-1.75,8.51-5.18h.68c.3,3.81,4.7,5.18,8.51,5.18,3.27,0,5.5-1.63,6.15-4.35l1.45.27h.15a.82.82,0,0,0,.15-1.63Zm-25.6,4c-1.42,0-4.71-.43-4.71-4.43,0-2.67,1.1-2.94,5.8-2.94S48,42,48,44.64C48,46.34,47.29,48.59,41.11,48.59Zm17.7,0c-6.56,0-6.89-3.29-6.89-3.95,0-2.69,1.25-3.42,5.8-3.42s5.8.27,5.8,2.94C63.52,48.16,60.22,48.59,58.81,48.59Z"/><path class="cls-8" d="M32.94,49.3a5.23,5.23,0,0,0-3.8-2.24.82.82,0,1,0,0,1.64c1.61,0,3.12,2.28,3.66,3.34C33.16,52.81,33.87,50.44,32.94,49.3Z"/><path class="cls-8" d="M67.07,52c.54-1.06,2-3.34,3.66-3.34a.82.82,0,0,0,0-1.64,5.23,5.23,0,0,0-3.8,2.24C66.19,50.46,66.44,53.09,67.07,52Z"/></g></svg>