<svg xmlns="http://www.w3.org/2000/svg" viewBox="0 0 100 100"><defs><style>.cls-1{fill:#db5e88;}.cls-2{fill:#f6a821;}.cls-3{fill:#87304b;}.cls-4{fill:#e58057;}.cls-5{fill:#ccc;}.cls-6{fill:#ff9566;}.cls-7{fill:#6b1818;}.cls-8{fill:#333;}.cls-9{fill:#cc6436;}</style></defs><title>avatar-prof-flat</title><g id="Layer_6" data-name="Layer 6"><path class="cls-1" d="M31.11,49.47c2,7.85-5.7,11.74-5.7,19.45S35.44,85.44,50,85.44s24.58-8.81,24.58-16.52S67,57.32,69,49.47c2.41-9.41,1.54-33.9-19-33.9S28.71,40.06,31.11,49.47Z"/><path class="cls-2" d="M50,73.9A26.63,26.63,0,0,0,29,84.14a2,2,0,0,0,0,2.55c7,8.2,35.5,8.16,42,0a2,2,0,0,0,0-2.49A26.63,26.63,0,0,0,50,73.9Z"/><path class="cls-3" d="M71,84.2A26.77,26.77,0,0,0,59.9,75.81l-2,16.49c5.86-.85,10.9-2.72,13.19-5.6A2,2,0,0,0,71,84.2Z"/><path class="cls-3" d="M65.08,84.91c-.59-3.84-2-7.22-5.18-9.1l-2,16.49c5.86-.85,4.95-3.69,3.92-5.08C62.85,86.3,65.22,85.82,65.08,84.91Z"/><path class="cls-3" d="M29,84.2a26.77,26.77,0,0,1,11.15-8.39l2,16.49c-5.86-.85-10.9-2.72-13.19-5.6A2,2,0,0,1,29,84.2Z"/><path class="cls-3" d="M35,84.91c.59-3.84,2-7.22,5.18-9.1l2,16.49c-5.86-.85-4.95-3.69-3.92-5.08C37.19,86.3,34.82,85.82,35,84.91Z"/><ellipse class="cls-4" cx="31.11" cy="49.47" rx="4.44" ry="6.1" transform="translate(-25.87 36.49) rotate(-45)"/><path class="cls-4" d="M54.14,74.22h0V62.63a4.1,4.1,0,1,0-8.2,0V74.25C43.57,76.75,50,81.95,50,81.95S56.55,76.63,54.14,74.22Z"/><path class="cls-5" d="M41.51,83.36l6.7-3.1s-2.6-2.94-2.6-6l-1.68.35Z"/><path class="cls-5" d="M58.62,83.36l-6.7-3.1s2.6-2.94,2.6-6l1.68.35Z"/><path class="cls-6" d="M58,25.27c-9.3,11.75-23.6,9-23.6,15.84v7.52a15.63,15.63,0,0,0,31.26,0V41.11C63,38.46,58,33.73,58,25.27Z"/><path class="cls-2" d="M65.66,41.11v13h2.24c1.23,0,4-1.56,4-6.49s-2.94-6.49-4.1-6.49Z"/><ellipse class="cls-7" cx="43.45" cy="44.53" rx="1.38" ry="2.51"/><ellipse class="cls-7" cx="56.62" cy="44.53" rx="1.38" ry="2.51"/><path class="cls-7" d="M40.79,39.51c1-1,3.91-1.67,5.9-1.67a.82.82,0,0,0,0-1.64c-2,0-5.58.67-7.06,2.15a.82.82,0,1,0,1.16,1.16Z"/><path class="cls-7" d="M53.38,37.84c2,0,4.95.72,5.9,1.67a.82.82,0,0,0,1.16-1.16c-1.48-1.48-5-2.15-7.06-2.15a.82.82,0,0,0,0,1.64Z"/><path class="cls-7" d="M45,54.17A.82.82,0,0,0,45,55.33a7,7,0,0,0,5,1.84c3.4,0,4.69-1.85,4.74-1.93a.82.82,0,0,0-1.36-.92s-.89,1.21-3.39,1.21a5.39,5.39,0,0,1-3.84-1.31A.82.82,0,0,0,45,54.17Z"/><path class="cls-8" d="M67.89,51.63a.82.82,0,0,0-.82.82v3.12a2.61,2.61,0,0,1-.75,2c-1.42,1.4-4.65,1.51-7.14,1.5A1.26,1.26,0,0,0,58,58.26H54.09a1.26,1.26,0,0,0-1.26,1.26v.76a1.26,1.26,0,0,0,1.26,1.26H58a1.25,1.25,0,0,0,1.18-.88h.35c2.8,0,6.13-.2,7.92-2a4.22,4.22,0,0,0,1.23-3.12V52.45A.82.82,0,0,0,67.89,51.63Z"/><path class="cls-9" d="M33.22,49.3a5.23,5.23,0,0,0-3.8-2.24.82.82,0,1,0,0,1.64C31,48.7,32.53,51,33.07,52,33.44,52.81,34.15,50.44,33.22,49.3Z"/></g></svg>