<svg xmlns="http://www.w3.org/2000/svg" viewBox="0 0 100 100"><defs><style>.cls-1{fill:#1a1a1a;}.cls-2{fill:#87304b;}.cls-3{fill:#ff9566;}.cls-4{fill:#999;}.cls-5{fill:#6b1818;}</style></defs><title>avatar-prof-flat</title><g id="Layer_13" data-name="Layer 13"><path class="cls-1" d="M66.88,75.83v6.4s-12.81-2.87-12.81-6.4a6.4,6.4,0,0,1,12.81,0Z"/><path class="cls-1" d="M33.07,75.83v6.4s12.81-2.87,12.81-6.4a6.4,6.4,0,1,0-12.81,0Z"/><path class="cls-2" d="M31.09,49.47V33.61c0-4.92,6.76-15,19-15s19,9.51,19,15.41V49.47C69,64.94,31.09,64.67,31.09,49.47Z"/><path class="cls-2" d="M71,84.19a26.66,26.66,0,0,0-17-10V62.63a4.1,4.1,0,0,0-8.2,0V74.21A26.66,26.66,0,0,0,29,84.14a2,2,0,0,0,0,2.55c7,8.2,35.5,8.16,42,0A2,2,0,0,0,71,84.19Z"/><path class="cls-3" d="M65.64,42c0-8.63-7-10.25-15.63-10.25S34.38,33.39,34.38,42v6.61a15.63,15.63,0,0,0,31.26,0Z"/><path class="cls-4" d="M67,40.59c-2.06-2.06-7.79-3.69-17-3.69S35,38.52,33,40.59s2.43,10.1,7.72,10.1,6-3.53,9.29-3.53,4,3.53,9.29,3.53S69.05,42.65,67,40.59Z"/><rect class="cls-4" x="44.51" y="53" width="10.93" height="6.3" rx="2.41" ry="2.41"/><path class="cls-5" d="M61.61,74a1.23,1.23,0,0,1-1.21-1c0-.22-.94-5.36,2.47-8.77,1.62-1.62,2.32-3,2-3.8s-2.24-3-14.88-3a1.23,1.23,0,1,1,0-2.46c6.55,0,15.46.47,17.15,4.54.77,1.86-.07,4-2.51,6.47s-1.8,6.54-1.79,6.59a1.23,1.23,0,0,1-1,1.43Z"/></g></svg>