<svg xmlns="http://www.w3.org/2000/svg" viewBox="0 0 100 100"><defs><style>.cls-1{fill:#996434;}.cls-2{fill:#87304b;}.cls-3{fill:#e58057;}.cls-4{fill:#ccc;}.cls-5{fill:#999;}.cls-6{fill:#ff9566;}.cls-7{fill:#6b1818;}.cls-8{fill:#cc6436;}</style></defs><title>avatar-prof-flat</title><g id="Layer_16" data-name="Layer 16"><path class="cls-1" d="M29.6,51.47V34.39c0-5.29,7.28-17.52,20.4-17.52s20.4,11.66,20.4,18V51.47c0,10.24-4.69,22.43-20.47,22.43C37.85,73.9,27,68.41,27,65,31.22,60.83,29.6,55.06,29.6,51.47Z"/><path class="cls-2" d="M49.93,73.9a26.63,26.63,0,0,0-21,10.24,2,2,0,0,0,0,2.55c7,8.2,35.5,8.16,42,0a2,2,0,0,0,0-2.49A26.63,26.63,0,0,0,49.93,73.9Z"/><path class="cls-3" d="M54,74.24V62.63a4.1,4.1,0,1,0-8.2,0V74.24a25.7,25.7,0,0,0-5.77,1.56c0,.24,1.18,9.51,1.45,11.67H58.39c.27-2.16,1.48-11.43,1.45-11.67A25.73,25.73,0,0,0,54,74.24Z"/><path class="cls-4" d="M71,84.19A26.77,26.77,0,0,0,59.84,75.8l-2,16.49c5.86-.85,10.9-2.72,13.19-5.6A2,2,0,0,0,71,84.19Z"/><path class="cls-5" d="M65,84.9c-.59-3.84-2-7.22-5.18-9.1l-2,16.49c5.86-.85,4.95-3.69,3.92-5.08C62.79,86.29,65.15,85.82,65,84.9Z"/><path class="cls-4" d="M28.93,84.19A26.77,26.77,0,0,1,40.07,75.8l2,16.49c-5.86-.85-10.9-2.72-13.19-5.6A2,2,0,0,1,28.93,84.19Z"/><path class="cls-5" d="M34.9,84.9c.59-3.84,2-7.22,5.18-9.1l2,16.49c-5.86-.85-4.95-3.69-3.92-5.08C37.12,86.29,34.76,85.82,34.9,84.9Z"/><ellipse class="cls-3" cx="68.95" cy="49.47" rx="6.1" ry="4.44" transform="translate(-14.79 63.25) rotate(-45)"/><ellipse class="cls-3" cx="31.05" cy="49.47" rx="4.44" ry="6.1" transform="translate(-25.89 36.44) rotate(-45)"/><path class="cls-6" d="M44.77,26.13c-1,4.61-10.43,7.54-10.43,20.36v2.14a15.63,15.63,0,0,0,31.26,0V43C63.57,28.31,47.62,33.55,44.77,26.13Z"/><ellipse class="cls-7" cx="43.38" cy="44.53" rx="1.38" ry="2.51"/><ellipse class="cls-7" cx="56.55" cy="44.53" rx="1.38" ry="2.51"/><path class="cls-7" d="M40.14,39.75a.82.82,0,0,1-.58-1.4c1.48-1.48,5-2.15,7.06-2.15a.82.82,0,0,1,0,1.64c-2,0-4.95.72-5.9,1.67A.82.82,0,0,1,40.14,39.75Z"/><path class="cls-7" d="M59.79,39.75a.82.82,0,0,1-.58-.24c-1-1-3.91-1.67-5.9-1.67a.82.82,0,0,1,0-1.64c2,0,5.58.67,7.06,2.15a.82.82,0,0,1-.58,1.4Z"/><path class="cls-7" d="M49.94,56.56a4.9,4.9,0,0,1-3.66-2,.82.82,0,0,1,1.34-.95,3.28,3.28,0,0,0,2.32,1.32,3.28,3.28,0,0,0,2.32-1.32.82.82,0,0,1,1.34.95A4.89,4.89,0,0,1,49.94,56.56Z"/><path class="cls-8" d="M32.94,49.3a5.23,5.23,0,0,0-3.8-2.24.82.82,0,1,0,0,1.64c1.61,0,3.12,2.28,3.66,3.34C33.16,52.81,33.87,50.44,32.94,49.3Z"/><path class="cls-8" d="M67.07,52c.54-1.06,2-3.34,3.66-3.34a.82.82,0,0,0,0-1.64,5.23,5.23,0,0,0-3.8,2.24C66.19,50.46,66.44,53.09,67.07,52Z"/></g></svg>