<svg xmlns="http://www.w3.org/2000/svg" viewBox="0 0 100 100"><defs><style>.cls-1{fill:#fff;}.cls-2{fill:#f6a821;}.cls-3{fill:#e58057;}.cls-4{fill:#ff9566;}.cls-5{fill:#1a1a1a;}.cls-6{fill:#999;}.cls-7{fill:#6b1818;}.cls-8{fill:#cc6436;}.cls-9{fill:#333;}</style></defs><title>avatar-prof-flat</title><g id="Layer_14" data-name="Layer 14"><path class="cls-1" d="M49.93,73.9a26.63,26.63,0,0,0-21,10.24,2,2,0,0,0,0,2.55c7,8.2,35.5,8.16,42,0a2,2,0,0,0,0-2.49A26.63,26.63,0,0,0,49.93,73.9Z"/><path class="cls-2" d="M34.33,37.74a15.63,15.63,0,0,1,.58-4.21c-1.58.17-2.9.35-3.86.53V49.47h3.31c0-.28,0-.56,0-.84Z"/><path class="cls-2" d="M68.95,34.06c-1.05-.19-2.39-.37-3.94-.54a15.63,15.63,0,0,1,.58,4.22V48.63c0,.28,0,.56,0,.84h3.38V34.06h0Z"/><path class="cls-3" d="M54,61.68a3.15,3.15,0,0,0-3.14-3.14H49a3.15,3.15,0,0,0-3.14,3.14V76.16c0,1.37,2.06,3.14,4.12,3.14S54,77.39,54,76.16Z"/><ellipse class="cls-3" cx="68.95" cy="49.47" rx="6.1" ry="4.44" transform="translate(-14.79 63.24) rotate(-45)"/><ellipse class="cls-3" cx="31.04" cy="49.47" rx="4.44" ry="6.1" transform="translate(-25.89 36.44) rotate(-45)"/><path class="cls-4" d="M65.59,37.74a15.63,15.63,0,0,0-31.26,0V48.63a15.63,15.63,0,0,0,31.26,0Z"/><path class="cls-5" d="M53.38,92.73s-3.17-9-2.54-9.66a18.85,18.85,0,0,1,2.54-1.75l-3.46-2-3.69,2A17.47,17.47,0,0,1,49,83.07c.63.63-2.54,9.66-2.54,9.66Z"/><path class="cls-5" d="M43.37,74.72a26.71,26.71,0,0,0-14.44,9.47,2,2,0,0,0-.43,1.24A2,2,0,0,0,29,86.69c3,3.51,9.94,5.5,17.39,6Z"/><path class="cls-5" d="M56.54,74.72A26.71,26.71,0,0,1,71,84.19a2,2,0,0,1,.43,1.24,2,2,0,0,1-.48,1.26c-3,3.51-9.94,5.5-17.39,6Z"/><path class="cls-6" d="M49.93,79.3l6.45,3.77.15-8.35L54,74.21C54,77.44,49.93,79.3,49.93,79.3Z"/><path class="cls-6" d="M49.93,79.3,43,83.07l.26-8.35,2.53-.44C45.83,76.71,49.93,79.3,49.93,79.3Z"/><ellipse class="cls-7" cx="43.38" cy="44.53" rx="1.38" ry="2.51"/><ellipse class="cls-7" cx="56.55" cy="44.53" rx="1.38" ry="2.51"/><path class="cls-7" d="M40.14,41a.82.82,0,0,1-.58-1.4c1.34-1.35,4.3-1.34,6.67-1.33h.39a.82.82,0,0,1,0,1.64h-.4c-1.84,0-4.64,0-5.51.85A.82.82,0,0,1,40.14,41Z"/><path class="cls-7" d="M59.79,41a.82.82,0,0,1-.58-.24c-.86-.86-3.66-.85-5.51-.85h-.4a.82.82,0,1,1,0-1.64h.39c2.38,0,5.32,0,6.67,1.33a.82.82,0,0,1-.58,1.4Z"/><path class="cls-5" d="M74.68,35.17c-.82-.54-3-1-5.72-1.33.17-2.21,1.62-21,1.62-23.31S59.86,5.44,50,5.44s-20.6,2.65-20.6,5.1S30.87,31.63,31,33.84c-2.77.35-4.9.79-5.72,1.33C22.84,36.8,39.71,38.4,50,38.4S77.16,36.8,74.68,35.17Z"/><path class="cls-7" d="M50,56.38a10.74,10.74,0,0,1-4.83-.89.82.82,0,0,1,.78-1.44,9.56,9.56,0,0,0,4.05.69,7.14,7.14,0,0,0,3.59-.64.83.83,0,0,1,1.13.2.81.81,0,0,1-.17,1.12C54.38,55.54,53.14,56.38,50,56.38Z"/><path class="cls-5" d="M50,51.91c3,3,6.89.67,8-.41-2.51,0-6-2.41-8-.41-2-2-6,.52-8,.52C42.85,52.47,46.91,55,50,51.91Z"/><path class="cls-8" d="M32.94,49.3a5.23,5.23,0,0,0-3.8-2.24.82.82,0,1,0,0,1.64c1.61,0,3.12,2.28,3.66,3.34C33.16,52.81,33.87,50.44,32.94,49.3Z"/><path class="cls-8" d="M67.07,52c.54-1.06,2-3.34,3.66-3.34a.82.82,0,0,0,0-1.64,5.23,5.23,0,0,0-3.8,2.24C66.19,50.46,66.44,53.09,67.07,52Z"/><path class="cls-9" d="M40.23,91.3a.82.82,0,0,1-.76-.52l-1.33-3.5a.82.82,0,0,1,.35-1l1.37-.8-2.67-1a.82.82,0,0,1-.48-1.05L39.07,77a.82.82,0,0,1,1.54.56l-2.09,5.69,3.53,1.31A.82.82,0,0,1,42.18,86l-2.26,1.32L41,90.19a.82.82,0,0,1-.76,1.12Z"/><path class="cls-9" d="M59.77,91.3a.82.82,0,0,0,.76-.52l1.33-3.5a.82.82,0,0,0-.35-1l-1.37-.8,2.67-1a.82.82,0,0,0,.48-1.05L60.93,77a.82.82,0,0,0-1.54.56l2.09,5.69-3.53,1.31A.82.82,0,0,0,57.82,86l2.26,1.32L59,90.19a.82.82,0,0,0,.76,1.12Z"/></g></svg>