<svg xmlns="http://www.w3.org/2000/svg" viewBox="0 0 100 100"><defs><style>.cls-1{fill:#c13355;}.cls-2{fill:#1a1a1a;}.cls-3{fill:#e58057;}.cls-4{fill:#db5e88;}.cls-5{fill:#ff9566;}.cls-6{fill:#6b1818;}.cls-7{fill:#333;}.cls-8{fill:#cc6436;}</style></defs><title>avatar-prof-flat</title><g id="Layer_12" data-name="Layer 12"><path class="cls-1" d="M49.93,72.35c-20.22,0-22.4,13.62-21.78,14.34,7,8.2,37.14,8.16,43.65,0C72.38,86,70.16,72.35,49.93,72.35Z"/><path class="cls-2" d="M54.05,92.7s-.62-4.54-.94-7.21a15.65,15.65,0,0,0-2-5.4l2-3.14L50,75.87v0L46.8,76.92l2,3.14a15.65,15.65,0,0,0-2,5.4c-.32,2.66-.94,7.21-.94,7.21s3.27.18,4.12.18S54.05,92.7,54.05,92.7Z"/><path class="cls-3" d="M49.93,75.83l-4.1-3.07V62.63a4.11,4.11,0,0,1,4.1-4.1h0a4.11,4.11,0,0,1,4.1,4.1V72.76Z"/><polygon class="cls-4" points="49.94 75.83 54.03 72.76 54.03 70.84 56.25 71.53 55.63 77.81 49.94 75.83"/><polygon class="cls-4" points="49.97 75.83 45.87 72.76 45.87 70.84 43.65 71.53 44.27 77.81 49.97 75.83"/><path class="cls-2" d="M54.07,19l-.18,0-1-.14-.32,0-.94-.08-.34,0c-.42,0-.85,0-1.29,0s-.85,0-1.27,0h-.18c-11.31.68-17.92,9.18-17.92,13.9,0,4.92,2.05,16.87,2.05,16.87H67.31S69.36,38.95,69.36,33C69.36,27.84,63.77,20.61,54.07,19Z"/><ellipse class="cls-3" cx="68.95" cy="49.47" rx="6.1" ry="4.44" transform="translate(-14.79 63.25) rotate(-45)"/><ellipse class="cls-3" cx="31.05" cy="49.47" rx="4.44" ry="6.1" transform="translate(-25.89 36.44) rotate(-45)"/><path class="cls-5" d="M64.34,31.77c-6.87,0-9.84-5.43-25-5.43,0,0,0,0,0-.07a15.59,15.59,0,0,0-5,11.47V48.63c0,8.63,1.25,16,15.63,16s15.63-7.41,15.63-16V37.74a15.58,15.58,0,0,0-1.19-6Z"/><path class="cls-6" d="M46.62,39.56a14.63,14.63,0,0,1-2.69-.36c-1.23-.24-2.77-.54-3.22-.09a.82.82,0,0,1-1.16-1.16c1.07-1.07,2.91-.71,4.69-.35a13.54,13.54,0,0,0,2.37.33.82.82,0,1,1,0,1.64Z"/><path class="cls-6" d="M53.31,39.56a.82.82,0,0,1,0-1.64,13.54,13.54,0,0,0,2.37-.33c1.78-.35,3.62-.71,4.69.35a.82.82,0,0,1-1.16,1.16c-.45-.45-2-.15-3.22.09A14.63,14.63,0,0,1,53.31,39.56Z"/><path class="cls-6" d="M54,55.6H45.53a.82.82,0,0,1,0-1.64H54a.82.82,0,0,1,0,1.64Z"/><path class="cls-7" d="M48.82,44.64c0,3.71-4.77,5.53-8.53,5.18-3-.29-4.71-2-4.71-5.66s2.37-4.58,6.62-4.58S48.82,41,48.82,44.64Z"/><path class="cls-7" d="M33.36,46.17a.82.82,0,0,1-.15-1.63l3-.56a.82.82,0,1,1,.3,1.61l-3,.56Z"/><path class="cls-7" d="M51.09,44.64c0,3.71,4.77,5.53,8.53,5.18,3-.29,4.71-2,4.71-5.66S62,39.58,57.72,39.58,51.09,41,51.09,44.64Z"/><path class="cls-7" d="M66.56,46.17h-.15l-3-.56A.82.82,0,1,1,63.7,44l3,.56a.82.82,0,0,1-.15,1.63Z"/><path class="cls-7" d="M52,45H47.9a.82.82,0,0,1,0-1.64H52A.82.82,0,1,1,52,45Z"/><path class="cls-8" d="M32.94,49.3a5.23,5.23,0,0,0-3.8-2.24.82.82,0,1,0,0,1.64c1.61,0,3.12,2.28,3.66,3.34C33.16,52.81,33.87,50.44,32.94,49.3Z"/><path class="cls-8" d="M67.07,52c.54-1.06,2-3.34,3.66-3.34a.82.82,0,0,0,0-1.64,5.23,5.23,0,0,0-3.8,2.24C66.19,50.46,66.44,53.09,67.07,52Z"/></g></svg>