<svg xmlns="http://www.w3.org/2000/svg" viewBox="0 0 100 100"><defs><style>.cls-1{fill:#996434;}.cls-2{fill:#ccc;}.cls-3{fill:#e58057;}.cls-4{fill:#cc6436;}.cls-5{fill:#ff9566;}.cls-6{fill:#6b1818;}.cls-7{fill:#f6a821;}.cls-8{fill:#87304b;}</style></defs><title>avatar-prof-flat</title><g id="Layer_8" data-name="Layer 8"><path class="cls-1" d="M34.34,48.63V37.74a15.57,15.57,0,0,1,1.5-6.69,17.51,17.51,0,0,0-4.72,1.62,6.48,6.48,0,0,0-.07.93V49.47h3.31C34.35,49.19,34.34,48.91,34.34,48.63Z"/><path class="cls-1" d="M68.83,32.68A17.45,17.45,0,0,0,64.09,31a15.57,15.57,0,0,1,1.5,6.69V48.63c0,.28,0,.56,0,.84H69V34.06A8.92,8.92,0,0,0,68.83,32.68Z"/><path class="cls-2" d="M49.93,73.9a26.63,26.63,0,0,0-21,10.24,2,2,0,0,0,0,2.55c7,8.2,35.5,8.16,42,0a2,2,0,0,0,0-2.49A26.63,26.63,0,0,0,49.93,73.9Z"/><path class="cls-3" d="M56.47,74.7q-1.2-.3-2.44-.49V62.63a4.1,4.1,0,1,0-8.2,0V74.21q-1.17.18-2.3.46a6.51,6.51,0,1,0,12.94,0Z"/><ellipse class="cls-3" cx="68.95" cy="49.47" rx="6.1" ry="4.44" transform="translate(-14.78 63.24) rotate(-45)"/><ellipse class="cls-3" cx="31.05" cy="49.47" rx="4.44" ry="6.1" transform="translate(-25.89 36.44) rotate(-45)"/><path class="cls-4" d="M33.22,49.3a5.23,5.23,0,0,0-3.8-2.24.82.82,0,1,0,0,1.64C31,48.7,32.53,51,33.07,52,33.44,52.81,34.15,50.44,33.22,49.3Z"/><path class="cls-4" d="M67.35,52c.54-1.06,2-3.34,3.66-3.34a.82.82,0,0,0,0-1.64,5.23,5.23,0,0,0-3.8,2.24C66.47,50.46,66.72,53.09,67.35,52Z"/><path class="cls-5" d="M65.6,37.74a15.63,15.63,0,0,0-31.26,0V48.63a15.63,15.63,0,0,0,31.26,0Z"/><ellipse class="cls-6" cx="43.38" cy="44.53" rx="1.38" ry="2.51"/><ellipse class="cls-6" cx="56.55" cy="44.53" rx="1.38" ry="2.51"/><path class="cls-6" d="M40.14,39.75a.82.82,0,0,1-.58-1.4c1.48-1.48,5-2.15,7.06-2.15a.82.82,0,0,1,0,1.64c-2,0-4.95.72-5.9,1.67A.82.82,0,0,1,40.14,39.75Z"/><path class="cls-6" d="M59.79,39.75a.82.82,0,0,1-.58-.24c-1-1-3.91-1.67-5.9-1.67a.82.82,0,0,1,0-1.64c2,0,5.58.67,7.06,2.15a.82.82,0,0,1-.58,1.4Z"/><path class="cls-6" d="M54.95,52.54c0-.65-2.76-3.07-5.17-3.07s-5.13,2.42-5.17,3.07,1.47-.08,5.17-.08S54.95,53.19,54.95,52.54Z"/><path class="cls-6" d="M50,57.17a7,7,0,0,1-5-1.84.82.82,0,0,1,1.21-1.11A5.39,5.39,0,0,0,50,55.53c2.48,0,3.36-1.17,3.39-1.22a.83.83,0,0,1,1.14-.19.81.81,0,0,1,.21,1.12C54.66,55.32,53.37,57.17,50,57.17Z"/><path class="cls-7" d="M69.64,33.28C69.64,23,61,14.43,50,14.43h0c-11,0-19.66,8.61-19.66,18.85,2.46-2.46,13.43-3.72,19.67-3.72S67.18,30.82,69.64,33.28Z"/><path class="cls-7" d="M31,40.72c-5.82-1.39-9.48-3.4-9.48-5.64,0-4.18,12.73-9.62,28.43-9.62s28.43,5.44,28.43,9.62c0,2.24-3.66,4.25-9.48,5.64v-8s-5.84-3.2-19-3.2S31,32.72,31,32.72Z"/><path class="cls-8" d="M64,90.77l1-12.1-4.56-2.6-.92,10H40.32l-.92-10-4.56,2.6s1.07,12.11,1.11,12.12,5.27,2,14.05,2S64,90.77,64,90.77Z"/></g></svg>