<svg xmlns="http://www.w3.org/2000/svg" viewBox="0 0 100 100"><defs><style>.cls-1{fill:#996434;}.cls-2{fill:#e58057;}.cls-3{fill:#ff9566;}.cls-4{fill:#c13355;}.cls-5{fill:#87304b;}.cls-6{fill:#6b1818;}.cls-7{fill:#cc6436;}</style></defs><title>avatar-prof-flat</title><g id="Layer_3" data-name="Layer 3"><path class="cls-1" d="M56.37,19.6l-.17-.05-.64-.18-.4-.1-.46-.1L54.16,19,53.78,19l-.63-.1-.39,0-.63-.07-.52,0-.53,0-1.08,0-.84,0q-.86,0-1.69.13c-5.54.6-11.93,2.62-14.7-.15A8.27,8.27,0,0,0,32,29.81a9.64,9.64,0,0,0-1,3.8c0,4.92,2.46,15.86,2.46,15.86h33S69,40,69,34.06C69,28.46,64.1,22,56.37,19.6Z"/><ellipse class="cls-2" cx="68.95" cy="49.47" rx="6.1" ry="4.44" transform="translate(-14.79 63.25) rotate(-45)"/><ellipse class="cls-2" cx="31.05" cy="49.47" rx="4.44" ry="6.1" transform="translate(-25.89 36.44) rotate(-45)"/><path class="cls-3" d="M55.17,27.53c-5.33,0-10.59,5.11-17.32,5.11a7.45,7.45,0,0,1-2.5-.43,15.59,15.59,0,0,0-1,5.54V48.63a15.63,15.63,0,0,0,31.26,0V37.74C65.6,32.31,60.5,27.53,55.17,27.53Z"/><path class="cls-4" d="M49.93,73.9a26.63,26.63,0,0,0-21,10.24,2,2,0,0,0,0,2.55c7,8.2,35.5,8.16,42,0a2,2,0,0,0,0-2.49A26.63,26.63,0,0,0,49.93,73.9Z"/><path class="cls-5" d="M33.8,79.34V90A28.17,28.17,0,0,0,38,91.4V76.72A26.69,26.69,0,0,0,33.8,79.34Z"/><path class="cls-5" d="M62,76.79V91.45A27.35,27.35,0,0,0,66.2,90V79.44A26.7,26.7,0,0,0,62,76.79Z"/><path class="cls-5" d="M52.61,85.47v7.3c1.42-.06,2.82-.18,4.19-.35V83.14A10,10,0,0,1,52.61,85.47Z"/><path class="cls-5" d="M43.2,83.14v9.25c1.37.18,2.77.3,4.19.37V85.47A10,10,0,0,1,43.2,83.14Z"/><path class="cls-2" d="M56.47,74.71q-1.2-.3-2.44-.49V62.63a4.1,4.1,0,1,0-8.2,0V74.21q-1.17.18-2.3.46a6.51,6.51,0,1,0,12.94,0Z"/><path class="cls-5" d="M56.47,74.73a6.52,6.52,0,1,1-12.95,0A22.57,22.57,0,0,0,40,75.85a10,10,0,1,0,19.94,0A24.59,24.59,0,0,0,56.47,74.73Z"/><path class="cls-1" d="M65.57,48.63c0,2.75-5.71,10.83-9,10.83s-3.37-.92-6.57-.92-3.23.92-6.57.92-9-8.08-9-10.83a15.63,15.63,0,0,0,15.6,15.63h0A15.63,15.63,0,0,0,65.57,48.63Z"/><ellipse class="cls-6" cx="43.38" cy="44.53" rx="1.38" ry="2.51"/><ellipse class="cls-6" cx="56.55" cy="44.53" rx="1.38" ry="2.51"/><path class="cls-6" d="M47.44,38.25a.82.82,0,0,0-.82-.82c-.45,0-1,0-1.5,0-2.16-.1-4.39-.2-5.56,1a.82.82,0,1,0,1.16,1.16c.66-.66,2.78-.56,4.33-.49.56,0,1.08,0,1.57,0A.82.82,0,0,0,47.44,38.25Z"/><path class="cls-6" d="M54.81,37.38c-.54,0-1,0-1.5,0a.82.82,0,0,0,0,1.64c.49,0,1,0,1.57,0,1.55-.07,3.67-.17,4.33.49a.82.82,0,0,0,1.16-1.16C59.2,37.18,57,37.29,54.81,37.38Z"/><path class="cls-6" d="M52.53,53.3a3.17,3.17,0,0,1-2.6.92,4.19,4.19,0,0,1-3-1,.82.82,0,0,0-1.2,1.11,5.77,5.77,0,0,0,4.17,1.53c2.77,0,3.83-1.46,3.94-1.62a.81.81,0,0,0-.21-1.12A.83.83,0,0,0,52.53,53.3Z"/><path class="cls-7" d="M33.22,49.3a5.23,5.23,0,0,0-3.8-2.24.82.82,0,1,0,0,1.64C31,48.7,32.53,51,33.07,52,33.44,52.81,34.15,50.44,33.22,49.3Z"/><path class="cls-7" d="M67.35,52c.54-1.06,2-3.34,3.66-3.34a.82.82,0,0,0,0-1.64,5.23,5.23,0,0,0-3.8,2.24C66.47,50.46,66.72,53.09,67.35,52Z"/></g></svg>