<svg xmlns="http://www.w3.org/2000/svg" viewBox="0 0 100 100"><defs><style>.cls-1{fill:#f6a821;}.cls-2{fill:#e58057;}.cls-3{fill:#999;}.cls-4{fill:#ff9566;}.cls-5{fill:#c13355;}.cls-6{fill:#db5e88;}.cls-7{fill:#ccc;}.cls-8{fill:#6b1818;}.cls-9{fill:#cc6436;}</style></defs><title>avatar-prof-flat</title><g id="Layer_4" data-name="Layer 4"><path class="cls-1" d="M50,22.11A15.6,15.6,0,0,1,62.1,27.89a7.18,7.18,0,0,0,2.68-5.55,7.87,7.87,0,0,0-15.7-.2Z"/><ellipse class="cls-2" cx="68.95" cy="49.47" rx="6.1" ry="4.44" transform="translate(-14.79 63.25) rotate(-45)"/><ellipse class="cls-2" cx="31.05" cy="49.47" rx="4.44" ry="6.1" transform="translate(-25.89 36.44) rotate(-45)"/><path class="cls-3" d="M49.93,73.9a26.63,26.63,0,0,0-21,10.24,2,2,0,0,0,0,2.55c7,8.2,35.5,8.16,42,0a2,2,0,0,0,0-2.49A26.63,26.63,0,0,0,49.93,73.9Z"/><path class="cls-2" d="M54,74.22h0V62.63a4.1,4.1,0,1,0-8.2,0V74.2h0c-2.47,2.47,4.1,7.75,4.1,7.75S56.44,76.63,54,74.22Z"/><path class="cls-4" d="M40.14,26.84c0,4.37-2.32,11.69-5.8,15.17v6.61a15.63,15.63,0,0,0,31.26,0V42C65.6,32.45,49,35.74,40.14,26.84Z"/><path class="cls-5" d="M49.94,56.13a4.81,4.81,0,0,1-4.5-2.64.82.82,0,0,1,1.5-.66,3.2,3.2,0,0,0,3,1.66,3.24,3.24,0,0,0,3-1.66.82.82,0,1,1,1.5.67A4.87,4.87,0,0,1,49.94,56.13Z"/><path class="cls-1" d="M50,18.65c-12.19,0-19,10-19,15V44.4a9.36,9.36,0,0,1,1.67.77,13.89,13.89,0,0,1,1.61,1.32V42c3.48-3.48,5.8-10.8,5.8-15.17C49,35.74,65.6,32.45,65.6,42v4.54a16.58,16.58,0,0,1,1.7-1.4A9.12,9.12,0,0,1,69,44.4V34.06C69,28.16,62.19,18.65,50,18.65Z"/><path class="cls-6" d="M52.69,92.77C60.61,92.41,68,90.38,71,86.68a2,2,0,0,0,0-2.49,26.7,26.7,0,0,0-14.89-9.58C55.29,78.74,53.45,88.28,52.69,92.77Z"/><path class="cls-6" d="M47.22,92.77c-7.91-.36-15.35-2.39-18.29-6.08a2,2,0,0,1,0-2.49,26.7,26.7,0,0,1,14.89-9.58C44.62,78.74,46.46,88.28,47.22,92.77Z"/><path class="cls-7" d="M45.5,83.36l2.6-3.1s-2.6-2.94-2.6-6l-1.68.35Z"/><path class="cls-7" d="M54.41,83.36l-2.6-3.1s2.6-2.94,2.6-6l1.68.35Z"/><path class="cls-5" d="M49.34,89.68c2.94,0,3.36-5.09,3.36-6a2.91,2.91,0,0,0-2.77-3c-2.18,0-2.71,1.74-2.71,3S51,88,49.34,89.68Z"/><ellipse class="cls-8" cx="43.38" cy="44.53" rx="1.38" ry="2.51"/><ellipse class="cls-8" cx="56.55" cy="44.53" rx="1.38" ry="2.51"/><path class="cls-8" d="M46.2,37.13c-2.37-1.32-5.37,0-6.64,1.23a.82.82,0,0,0,1.16,1.16c1-1,3.2-1.78,4.69-1a.82.82,0,1,0,.8-1.43Z"/><path class="cls-8" d="M53.73,37.13a.82.82,0,0,0,.8,1.43c1.48-.83,3.73,0,4.69,1a.82.82,0,0,0,1.16-1.16C59.1,37.08,56.1,35.8,53.73,37.13Z"/><rect class="cls-8" x="58.27" y="84.86" width="6.45" height="1.72"/><path class="cls-9" d="M33.22,49.3a5.23,5.23,0,0,0-3.8-2.24.82.82,0,1,0,0,1.64C31,48.7,32.53,51,33.07,52,33.44,52.81,34.15,50.44,33.22,49.3Z"/><path class="cls-9" d="M67.35,52c.54-1.06,2-3.34,3.66-3.34a.82.82,0,0,0,0-1.64,5.23,5.23,0,0,0-3.8,2.24C66.47,50.46,66.72,53.09,67.35,52Z"/></g></svg>