<svg xmlns="http://www.w3.org/2000/svg" viewBox="0 0 100 100"><defs><style>.cls-1{fill:#f6a821;}.cls-2{fill:#e58057;}.cls-3{fill:#ff9566;}.cls-4{fill:#6b1818;}.cls-5{fill:#c13355;}.cls-6{fill:#ccc;}.cls-7{fill:#cc6436;}</style></defs><title>avatar-prof-flat</title><g id="Layer_11" data-name="Layer 11"><path class="cls-1" d="M72.39,49.45S70.34,39.94,70.34,34s-6.76-15.41-19-15.41-19,10-19,15-2.05,15.86-2.05,15.86c0,7-6.05,9-6.05,17.44S36.69,75,36.69,83.06s35.07-1.78,35.07-12.84c0-5.07-3.26-6-3.26-10.77C68.5,56.32,72.39,53.86,72.39,49.45Z"/><path class="cls-2" d="M72.37,84.17a26.66,26.66,0,0,0-17-10V62.62a4.11,4.11,0,0,0-4.1-4.1h0a4.11,4.11,0,0,0-4.1,4.1V74.2a26.66,26.66,0,0,0-16.91,9.92,2,2,0,0,0,0,2.55c7,8.2,35.5,8.16,42,0A2,2,0,0,0,72.37,84.17Z"/><path d="M65.34,90.88c-.78-1.21-2.85-2.43-5.64-2.43-4.08,0-5.72,3.43-8.31,3.43s-4.23-3.43-8.31-3.43a6.83,6.83,0,0,0-5.6,2.38C45.52,93.45,57.4,93.46,65.34,90.88Z"/><ellipse class="cls-2" cx="70.34" cy="49.45" rx="6.1" ry="4.44" transform="translate(-14.37 64.22) rotate(-45)"/><ellipse class="cls-2" cx="32.44" cy="49.45" rx="4.44" ry="6.1" transform="translate(-25.47 37.42) rotate(-45)"/><path class="cls-3" d="M67,46.54V42c0-4.27-11.56-9.55-11.56-14.61,0,10.95-17.89,7.89-19.7,17.31v3.91a15.63,15.63,0,0,0,31.26,0V46.54Z"/><ellipse class="cls-4" cx="44.77" cy="44.51" rx="1.38" ry="2.51"/><ellipse class="cls-4" cx="57.94" cy="44.51" rx="1.38" ry="2.51"/><path class="cls-4" d="M48,40.75a.82.82,0,0,1-.58-.24c-1.17-1.17-4.47-.86-5.32,0A.82.82,0,0,1,41,39.35c1.54-1.54,5.83-1.81,7.64,0a.82.82,0,0,1-.58,1.4Z"/><path class="cls-4" d="M61.18,40.75a.82.82,0,0,1-.58-.24c-.86-.86-4.15-1.17-5.33,0a.82.82,0,0,1-1.16-1.16c1.81-1.81,6.1-1.54,7.64,0a.82.82,0,0,1-.58,1.4Z"/><path class="cls-5" d="M51.31,55.28a5.29,5.29,0,0,1-3.83-1.41.82.82,0,0,1,1.2-1.11,3.71,3.71,0,0,0,2.62.88,2.8,2.8,0,0,0,2.28-.79.81.81,0,0,1,1.13-.21.83.83,0,0,1,.21,1.15A4.23,4.23,0,0,1,51.31,55.28Z"/><path class="cls-6" d="M51.32,84.76a8.09,8.09,0,0,1-7.56-4.91,6.22,6.22,0,0,1,1.18-6.91.82.82,0,0,1,1.16,1.16,4.55,4.55,0,0,0-.82,5.12,6.64,6.64,0,0,0,12.09,0,4.55,4.55,0,0,0-.82-5.12.82.82,0,0,1,1.16-1.16,6.22,6.22,0,0,1,1.18,6.91A8.09,8.09,0,0,1,51.32,84.76Z"/><circle class="cls-6" cx="69.42" cy="53.93" r="1.62"/><circle class="cls-6" cx="33.32" cy="53.93" r="1.62"/><path class="cls-7" d="M34.18,49.3a5.23,5.23,0,0,0-3.8-2.24.82.82,0,1,0,0,1.64C32,48.7,33.49,51,34,52,34.4,52.81,35.11,50.44,34.18,49.3Z"/><path class="cls-7" d="M68.31,52c.54-1.06,2-3.34,3.66-3.34a.82.82,0,0,0,0-1.64,5.23,5.23,0,0,0-3.8,2.24C67.43,50.46,67.68,53.09,68.31,52Z"/></g></svg>