<svg xmlns="http://www.w3.org/2000/svg" viewBox="0 0 100 100"><defs><style>.cls-1{fill:#f6a821;}.cls-2{fill:#c13355;}.cls-3{fill:#e58057;}.cls-4{fill:#db5e88;}.cls-5{fill:#ff9566;}.cls-6{fill:#6b1818;}.cls-7{fill:#cc6436;}</style></defs><title>avatar-prof-flat</title><g id="Layer_15" data-name="Layer 15"><path class="cls-1" d="M34.34,48.63V37.74a15.59,15.59,0,0,1,1-5.54c-1.83.63-4.3,1.39-4.3,1.39V49.47h3.31C34.35,49.19,34.34,48.91,34.34,48.63Z"/><path class="cls-1" d="M68.94,33.71c0,.12,0,15.76,0,15.76H65.57c0-.28,0-.56,0-.84V37.74a15.59,15.59,0,0,0-1-5.57Z"/><path class="cls-2" d="M49.93,73.9a26.63,26.63,0,0,0-21,10.24,2,2,0,0,0,0,2.55c7,8.2,35.5,8.16,42,0a2,2,0,0,0,0-2.49A26.63,26.63,0,0,0,49.93,73.9Z"/><path class="cls-1" d="M49.78,92.82,39.4,76.08l-4.56,2.6,8.8,13.77A56.24,56.24,0,0,0,49.78,92.82Z"/><line class="cls-2" x1="50" y1="92.82" x2="49.93" y2="81.95"/><path class="cls-3" d="M54,74.22V62.63a4.1,4.1,0,1,0-8.2,0V74.2c-.8.12.5,7.75,4.1,7.75S54.84,74.35,54,74.22Z"/><path class="cls-4" d="M54.26,74.25a9.39,9.39,0,0,1-2.53,7l5.07,2.54-.09-9Z"/><path class="cls-4" d="M45.57,74.25a9.39,9.39,0,0,0,2.53,7L43,83.78l.09-9Z"/><ellipse class="cls-3" cx="68.95" cy="49.47" rx="6.1" ry="4.44" transform="translate(-14.79 63.25) rotate(-45)"/><ellipse class="cls-3" cx="31.05" cy="49.47" rx="4.44" ry="6.1" transform="translate(-25.89 36.44) rotate(-45)"/><path class="cls-5" d="M50,29.34A46.33,46.33,0,0,0,35.35,32.2a15.59,15.59,0,0,0-1,5.54V48.63a15.63,15.63,0,1,0,31.26,0V37.74a15.59,15.59,0,0,0-1-5.57A46.17,46.17,0,0,0,50,29.34Z"/><ellipse class="cls-6" cx="43.38" cy="44.53" rx="1.38" ry="2.51"/><ellipse class="cls-6" cx="56.55" cy="44.53" rx="1.38" ry="2.51"/><path class="cls-6" d="M40.14,41a.82.82,0,0,1-.58-1.4c1.48-1.48,5-2.15,7.06-2.15a.82.82,0,0,1,0,1.64c-2,0-4.95.72-5.9,1.67A.82.82,0,0,1,40.14,41Z"/><path class="cls-6" d="M59.79,41a.82.82,0,0,1-.58-.24c-1-1-3.91-1.67-5.9-1.67a.82.82,0,0,1,0-1.64c2,0,5.58.67,7.06,2.15a.82.82,0,0,1-.58,1.4Z"/><path class="cls-2" d="M69.77,21.83c0-2.45-9.9-7.38-19.77-7.38s-19.77,4.93-19.77,7.38.82,11.88.82,11.88c3-1,10.79-4.37,18.95-4.37S65.94,32.76,69,33.71C69,33.71,69.77,24.29,69.77,21.83Z"/><path class="cls-4" d="M71.51,35.21A40.61,40.61,0,0,0,50,29.34,40.61,40.61,0,0,0,28.5,35.21c-2,1.34,1.74,5.05,5.18,3.55s7.9-4.54,16.33-4.54,12.88,3,16.33,4.54S73.54,36.55,71.51,35.21Z"/><path class="cls-6" d="M50,57.17a7,7,0,0,1-5-1.84.82.82,0,0,1,1.21-1.11A5.39,5.39,0,0,0,50,55.53c2.48,0,3.36-1.17,3.39-1.22a.83.83,0,0,1,1.14-.19.81.81,0,0,1,.21,1.12C54.66,55.32,53.37,57.17,50,57.17Z"/><path class="cls-7" d="M32.94,49.3a5.23,5.23,0,0,0-3.8-2.24.82.82,0,1,0,0,1.64c1.61,0,3.12,2.28,3.66,3.34C33.16,52.81,33.87,50.44,32.94,49.3Z"/><path class="cls-7" d="M67.07,52c.54-1.06,2-3.34,3.66-3.34a.82.82,0,0,0,0-1.64,5.23,5.23,0,0,0-3.8,2.24C66.19,50.46,66.44,53.09,67.07,52Z"/></g></svg>