<svg xmlns="http://www.w3.org/2000/svg" viewBox="0 0 100 100"><defs><style>.cls-1{fill:#f6a821;}.cls-2{fill:#e58057;}.cls-3{fill:#ccc;}.cls-4{fill:#fff;}.cls-5{fill:#999;}.cls-6{fill:#ff9566;}.cls-7{fill:#6b1818;}.cls-8{fill:#333;}</style></defs><title>avatar-prof-flat</title><g id="Layer_2" data-name="Layer 2"><path class="cls-1" d="M50.53,90.16c-14.82,0-24.52-7-24.52-14.08s5.57-12.56,5.57-26.61V33.61c0-4.92,6.76-15,19-15s19,9.51,19,15.41V49.47c0,14.05,5.57,19.5,5.57,26.61S65.36,90.16,50.53,90.16Z"/><ellipse class="cls-2" cx="69.48" cy="49.47" rx="6.1" ry="4.44" transform="translate(-14.63 63.62) rotate(-45)"/><ellipse class="cls-2" cx="31.58" cy="49.47" rx="4.44" ry="6.1" transform="translate(-25.73 36.82) rotate(-45)"/><path class="cls-3" d="M50.47,73.9a26.63,26.63,0,0,0-21,10.24,2,2,0,0,0,0,2.55c7,8.2,35.5,8.16,42,0a2,2,0,0,0,0-2.49A26.63,26.63,0,0,0,50.47,73.9Z"/><polygon class="cls-4" points="52.71 79.51 56.94 74.71 59.08 75.32 57.64 84.08 52.71 79.51"/><path class="cls-5" d="M59.08,75.32,56.25,92.54l2.83-.37s4.71-6,4.71-8.09S59.08,75.32,59.08,75.32Z"/><polygon class="cls-4" points="48.23 79.51 44 74.71 41.86 75.32 43.3 84.08 48.23 79.51"/><path class="cls-5" d="M41.86,75.32,44.68,92.5l-2.88-.4s-4.65-5.9-4.65-8S41.86,75.32,41.86,75.32Z"/><path class="cls-2" d="M54.57,74.22V62.63a4.1,4.1,0,1,0-8.2,0V74.2q-1.2.18-2.37.47c0,.25,6.47,7.27,6.47,7.27s6.5-7,6.47-7.24Q55.77,74.41,54.57,74.22Z"/><path class="cls-6" d="M55.11,24.32c0,4.35-12,11.57-20.24,13.33,0,0,0,.06,0,.09V48.63a15.63,15.63,0,1,0,31.26,0V37.74c0-.42,0-.83-.05-1.23C61.63,33.12,56.18,27.46,55.11,24.32Z"/><ellipse class="cls-7" cx="43.92" cy="44.53" rx="1.38" ry="2.51"/><ellipse class="cls-7" cx="57.09" cy="44.53" rx="1.38" ry="2.51"/><path class="cls-7" d="M48,36.08a.82.82,0,0,0-.82-.82c-2,0-5.58.67-7.06,2.15a.82.82,0,1,0,1.16,1.16c1-1,3.91-1.67,5.9-1.67A.82.82,0,0,0,48,36.08Z"/><path class="cls-7" d="M53.84,36.9c2,0,4.95.72,5.9,1.67a.82.82,0,0,0,1.16-1.16c-1.48-1.48-5-2.15-7.06-2.15a.82.82,0,0,0,0,1.64Z"/><path class="cls-7" d="M54.63,54.68a.81.81,0,0,0-.21-1.12.83.83,0,0,0-1.14.19,3.42,3.42,0,0,1-2.81,1,4.51,4.51,0,0,1-3.2-1.08.82.82,0,0,0-1.2,1.11,6.09,6.09,0,0,0,4.4,1.61C53.44,56.38,54.58,54.75,54.63,54.68Z"/><path class="cls-3" d="M68,43.27a.82.82,0,0,0-1-.6l-3.41.83a6.58,6.58,0,0,0-13,.18h-.11a6.58,6.58,0,0,0-13-.2l-3.32-.81a.82.82,0,1,0-.39,1.59l3.65.89a6.58,6.58,0,0,0,13.08.17h.11a6.58,6.58,0,0,0,13.08-.14l3.75-.91A.82.82,0,0,0,68,43.27ZM43.92,49.45a4.95,4.95,0,1,1,4.95-4.95A5,5,0,0,1,43.92,49.45Zm13.17,0A4.95,4.95,0,1,1,62,44.5,5,5,0,0,1,57.09,49.45Z"/><circle class="cls-5" cx="20.88" cy="64.26" r="3.57"/><path class="cls-8" d="M71.33,48.21H68.6a.82.82,0,0,0,0,1.64h1.9c-.3,9-5.65,19.2-20,19.2s-19.66-10.16-20-19.2h1.9a.82.82,0,0,0,0-1.64H29.74a.82.82,0,0,0-.82.82,22.6,22.6,0,0,0,5.17,15c3.67,4.2,9,6.47,15.57,6.67-.07,1.16-.17,3.51-.17,7.27,0,4.83-4.13,7-8,7a9.73,9.73,0,0,1-6.27-2.2,8.47,8.47,0,0,1-2.86-6.68c0-5.78-2.87-11.94-7.21-12.58a4.36,4.36,0,1,0,0,1.65c3.33.69,5.59,6.07,5.59,10.92A10.06,10.06,0,0,0,34.2,84a11.24,11.24,0,0,0,7.33,2.59,10.5,10.5,0,0,0,6.59-2.17,8.06,8.06,0,0,0,3-6.51c0-3.79.11-6.17.17-7.26,6.57-.17,12-2.45,15.68-6.67a22.6,22.6,0,0,0,5.17-15A.82.82,0,0,0,71.33,48.21ZM20.88,67a2.75,2.75,0,1,1,2.75-2.75A2.75,2.75,0,0,1,20.88,67Z"/></g></svg>