<svg xmlns="http://www.w3.org/2000/svg" viewBox="0 0 100 100"><defs><style>.cls-1{fill:#996434;}.cls-2{fill:#e58057;}.cls-3{fill:#ff9566;}.cls-4{fill:#999;}.cls-5{fill:#6b1818;}.cls-6{fill:#cc6436;}</style></defs><title>avatar-prof-flat</title><g id="Layer_19" data-name="Layer 19"><path class="cls-1" d="M41.77,22.11V15.22c0-2.14,2.94-6.5,8.23-6.5s8.23,4.13,8.23,6.69v6.69Z"/><path class="cls-1" d="M63.42,27.76c4.71,0,4.71,7.27,10.14,5.23,1.84,4.82-4.82,8.93-10.14,6Z"/><path class="cls-2" d="M71,84.19a26.66,26.66,0,0,0-17-10V62.63a4.11,4.11,0,0,0-4.1-4.1h0a4.11,4.11,0,0,0-4.1,4.1V74.21a26.66,26.66,0,0,0-16.91,9.92,2,2,0,0,0,0,2.55c7,8.2,35.5,8.16,42,0A2,2,0,0,0,71,84.19Z"/><ellipse class="cls-2" cx="68.95" cy="49.47" rx="6.1" ry="4.44" transform="translate(-14.78 63.24) rotate(-45)"/><ellipse class="cls-2" cx="31.05" cy="49.47" rx="4.44" ry="6.1" transform="translate(-25.89 36.44) rotate(-45)"/><path class="cls-3" d="M62,29.19c-5.91-5.91-8.5-2.67-12-2.66h0c-3.52,0-6.11-3.25-12,2.66-3.55,3.55-3.57,8.1-3.57,10.14V49.45c0,8.63,10.43,15.63,15.63,15.63s15.63-7,15.63-15.63V46.55l-.07-7.21C65.53,37.3,65.52,32.75,62,29.19Z"/><path class="cls-4" d="M41.77,16.59a18.74,18.74,0,0,1,8.16-2.32,19.65,19.65,0,0,1,8.3,2.32v2.17a15.84,15.84,0,0,0-8.3-2.17,15.06,15.06,0,0,0-8.16,2.17Z"/><path class="cls-1" d="M49.93,16.59h0C39.15,16.59,31,27.18,31,34.06V44.4a7.58,7.58,0,0,1,3.29,2.09V39.34c0-2,0-6.59,3.57-10.15,5.91-5.91,8.5-2.67,12-2.66h0c3.52,0,6.11-3.25,12,2.66,3.56,3.56,3.57,8.11,3.57,10.15l.07,7.21a8.39,8.39,0,0,1,3.22-2.12V34.06C68.82,27.18,60.72,16.59,49.93,16.59Z"/><ellipse class="cls-5" cx="43.38" cy="44.53" rx="1.38" ry="2.51"/><ellipse class="cls-5" cx="56.55" cy="44.53" rx="1.38" ry="2.51"/><path class="cls-5" d="M40.14,39.75a.82.82,0,0,1-.74-1.17,3.67,3.67,0,0,1,2.31-2,7,7,0,0,1,5.35,1.1.82.82,0,1,1-.86,1.4,5.43,5.43,0,0,0-4-.92,2,2,0,0,0-1.29,1.15A.82.82,0,0,1,40.14,39.75Z"/><path class="cls-5" d="M59.79,39.75a.82.82,0,0,1-.74-.47,2,2,0,0,0-1.29-1.15,5.43,5.43,0,0,0-4,.92.82.82,0,1,1-.86-1.4,7,7,0,0,1,5.35-1.1,3.67,3.67,0,0,1,2.31,2,.82.82,0,0,1-.74,1.17Z"/><path class="cls-5" d="M49.91,57.17a4.49,4.49,0,0,1-3.7-2,.82.82,0,0,1,1.39-.87,2.84,2.84,0,0,0,2.31,1.19,2.17,2.17,0,0,0,2-1.09.82.82,0,1,1,1.49.68A3.82,3.82,0,0,1,49.91,57.17Z"/><path class="cls-4" d="M62.77,77.51l-2.51-1.43V88.54c-4.08,1.33-15.38,1.23-20.65,0V76L37.1,77.18s0,13.61,0,14l2.51.62a67.72,67.72,0,0,0,10.32,1,69.8,69.8,0,0,0,10.32-1l2.51-.62C62.8,90.83,62.77,77.51,62.77,77.51Z"/><path class="cls-6" d="M32.94,49.3a5.23,5.23,0,0,0-3.8-2.24.82.82,0,1,0,0,1.64c1.61,0,3.12,2.28,3.66,3.34C33.16,52.81,33.87,50.44,32.94,49.3Z"/><path class="cls-6" d="M67.07,52c.54-1.06,2-3.34,3.66-3.34a.82.82,0,0,0,0-1.64,5.23,5.23,0,0,0-3.8,2.24C66.19,50.46,66.44,53.09,67.07,52Z"/></g></svg>