<svg xmlns="http://www.w3.org/2000/svg" viewBox="0 0 100 100"><defs><style>.cls-1{fill:#87304b;}.cls-2{fill:#6b1818;}.cls-3{fill:#ccc;}.cls-4{fill:#e58057;}.cls-5{fill:#cc6436;}.cls-6{fill:#ff9566;}.cls-7{fill:#db5e88;}</style></defs><title>avatar-prof-flat</title><g id="Layer_9" data-name="Layer 9"><path class="cls-1" d="M31.29,49.47c0,8-7,11-2.07,15.89,5.87,5.87,16.78-6.83,21-6.83s15.09,12.69,21,6.83c4.91-4.91-1.94-7.9-1.94-15.89V34.06c0-5.9-6.76-15.41-19-15.41s-19,10-19,15Z"/><path class="cls-2" d="M32.11,33.61a7.14,7.14,0,0,1,.36-2.06A5.85,5.85,0,0,0,32.11,33.61Z"/><path class="cls-3" d="M50.18,73.9a26.63,26.63,0,0,0-21,10.24,2,2,0,0,0,0,2.55c7,8.2,35.5,8.16,42,0a2,2,0,0,0,0-2.49A26.63,26.63,0,0,0,50.18,73.9Z"/><path class="cls-4" d="M54.28,74.22V62.63a4.1,4.1,0,0,0-8.2,0V74.2q-1.2.18-2.37.47c0,.25,4.21,7.27,6.47,7.27s6.5-7,6.47-7.24Q55.48,74.41,54.28,74.22Z"/><ellipse class="cls-4" cx="69.2" cy="49.47" rx="6.1" ry="4.44" transform="translate(-14.71 63.42) rotate(-45)"/><ellipse class="cls-4" cx="31.29" cy="49.47" rx="4.44" ry="6.1" transform="translate(-25.81 36.62) rotate(-45)"/><path class="cls-5" d="M33.22,49.3a5.23,5.23,0,0,0-3.8-2.24.82.82,0,1,0,0,1.64C31,48.7,32.53,51,33.07,52,33.44,52.81,34.15,50.44,33.22,49.3Z"/><path class="cls-5" d="M67.35,52c.54-1.06,2-3.34,3.66-3.34a.82.82,0,0,0,0-1.64,5.23,5.23,0,0,0-3.8,2.24C66.47,50.46,66.72,53.09,67.35,52Z"/><path class="cls-6" d="M43.63,24.85c-1.12,4.13-5.12,9.74-9,12.06,0,.28,0,.56,0,.84V48.63a15.63,15.63,0,0,0,31.26,0V37.74a15.81,15.81,0,0,0-.08-1.6C56.18,35.19,43.63,30.62,43.63,24.85Z"/><ellipse class="cls-2" cx="43.63" cy="44.53" rx="1.38" ry="2.51"/><ellipse class="cls-2" cx="56.8" cy="44.53" rx="1.38" ry="2.51"/><path class="cls-2" d="M40.38,39.75a.82.82,0,0,1-.58-1.4,6,6,0,0,1,3.82-1.64,4.89,4.89,0,0,1,3.82,1.23.82.82,0,1,1-1.16,1.16,3.32,3.32,0,0,0-2.55-.75A4.43,4.43,0,0,0,41,39.51.82.82,0,0,1,40.38,39.75Z"/><path class="cls-2" d="M60,39.75a.82.82,0,0,1-.58-.24c-1.37-1.37-4.15-1.58-5.32-.41A.82.82,0,1,1,53,37.94c1.82-1.83,5.61-1.62,7.64.41a.82.82,0,0,1-.58,1.4Z"/><path class="cls-2" d="M50.21,56.4c-4.22,0-5.77-2.47-5.84-2.58a.82.82,0,0,1,1.4-.86c.06.09,1.21,1.8,4.44,1.8S54.64,53,54.65,53a.82.82,0,1,1,1.4.85C56,53.92,54.43,56.4,50.21,56.4Z"/><path class="cls-3" d="M69.2,34.06c0-4.3-6.75-9.42-19-9.42s-18.92,3.08-18.92,9c0,0-1.1-8.35-1.1-11S25.48,19,25.48,15.32s2-9.84,9.1-9.84c9.6,0,13.65,8.5,20.2,8.5S66,9,71.45,14.43,71,26,71,28.31,69.2,34.06,69.2,34.06Z"/><path class="cls-7" d="M43.7,74.67a22.06,22.06,0,0,0-2.64.82c.55,3.14,4.47,6.14,7.84,5.92-3.37.22-9.74,4-6.82,6.95s7.3-4.91,7.3-6.65C47.63,80.89,44.31,76,43.7,74.67Z"/><path class="cls-7" d="M56.65,74.67a22.06,22.06,0,0,1,2.64.82c-.55,3.14-4.47,6.14-7.84,5.92,3.37.22,9.74,4,6.82,6.95S51,83.46,51,81.71C52.72,80.89,56.05,76,56.65,74.67Z"/></g></svg>