<svg xmlns="http://www.w3.org/2000/svg" viewBox="0 0 100 100"><defs><style>.cls-1{fill:#87304b;}.cls-2{fill:#996434;}.cls-3{fill:#999;}.cls-4{fill:#e58057;}.cls-5{fill:#6b1818;}.cls-6{fill:#ff9566;}.cls-7{fill:#1a1a1a;}.cls-8{fill:#cc6436;}</style></defs><title>avatar-prof-flat</title><g id="Layer_17" data-name="Layer 17"><path class="cls-1" d="M49.93,73.9a26.63,26.63,0,0,0-21,10.24,2,2,0,0,0,0,2.55c7,8.2,35.5,8.16,42,0a2,2,0,0,0,0-2.49A26.63,26.63,0,0,0,49.93,73.9Z"/><path class="cls-2" d="M37.85,91.36A52.35,52.35,0,0,0,62,91.45v-4H37.85Z"/><path class="cls-2" d="M40.86,92,39.4,76.08l-4.56,2.6,1,12.1Z"/><circle class="cls-3" cx="38.98" cy="87.47" r="1.89"/><path class="cls-2" d="M59,92l1.46-15.94L65,78.68l-1,12.1Z"/><circle class="cls-3" cx="60.89" cy="87.47" r="1.89"/><path class="cls-4" d="M56.47,74.71q-1.2-.3-2.44-.49v-6a4.1,4.1,0,0,0-8.2,0v6q-1.17.18-2.3.46a6.51,6.51,0,1,0,12.94,0Z"/><ellipse class="cls-4" cx="68.95" cy="49.47" rx="6.1" ry="4.44" transform="translate(-14.79 63.25) rotate(-45)"/><ellipse class="cls-4" cx="31.05" cy="49.47" rx="4.44" ry="6.1" transform="translate(-25.89 36.44) rotate(-45)"/><path class="cls-5" d="M34.38,45.52v0Z"/><path d="M51.7,13.29c-3.07,0-3-3.18-5.87-3.18s-6.66,4.72-1.94,9.44,12.47,3.41,14.9,1,3.36-6.42-.23-8C55.56,11.28,53.17,13.29,51.7,13.29Z"/><path class="cls-6" d="M65.58,37.05a15.54,15.54,0,0,0-2.15-7.25,5.16,5.16,0,0,0-4-2.37c-4.32,0-6.66.41-9.64.41s-6.4-.41-9.52-.41c-1.75,0-3.09,1.2-4,2.87a15.55,15.55,0,0,0-.88,1.94,17.5,17.5,0,0,0-1,5c0,.18,0,.37,0,.55h0v8.09c0-.29.07-.46.07-.46,0,2.36,1.78,7.68,5.8,7.68s5.22-2.77,9.79-2.77,5.77,2.77,9.79,2.77,5.8-5.33,5.8-7.68V39.12C65.59,38.44,65.58,37.74,65.58,37.05Z"/><ellipse class="cls-5" cx="43.38" cy="44.53" rx="1.38" ry="2.51"/><ellipse class="cls-5" cx="56.55" cy="44.53" rx="1.38" ry="2.51"/><path class="cls-5" d="M46.62,40.54a11.18,11.18,0,0,1-3.08-.64c-1-.32-2.47-.75-2.83-.39a.82.82,0,0,1-1.16-1.16c1.06-1.06,2.79-.53,4.47,0a10.14,10.14,0,0,0,2.6.57.82.82,0,0,1,0,1.64Z"/><path class="cls-5" d="M53.31,40.54a.82.82,0,0,1,0-1.64,10.14,10.14,0,0,0,2.6-.57c1.68-.51,3.41-1,4.47,0a.82.82,0,1,1-1.16,1.16c-.36-.36-1.79.07-2.83.39A11.18,11.18,0,0,1,53.31,40.54Z"/><path class="cls-7" d="M66.06,49.47S69,40,69,34.06,62.19,18.65,50,18.65s-19,10-19,15,2.89,15.86,2.89,15.86h0c-.44,5.08-.66,13.43,2.19,16.28S43,72.09,50,72.09s10.9-3.38,13.87-6.35,2.63-11.2,2.19-16.28Zm-6.27,3.6c-4,0-5.22-2.77-9.79-2.77s-5.77,2.77-9.79,2.77-5.8-5.33-5.8-7.68-.07-5.06-.07-7.65c0-3.68,1.81-10.31,5.93-10.31,3.12,0,6.53,1.91,9.52,1.91s5.33-1.91,9.64-1.91c3.26,0,6.16,4.25,6.16,9.59,0,3-.1,6,0,8.37S63.81,53.07,59.79,53.07Z"/><path class="cls-4" d="M50,57.17a7,7,0,0,1-5-1.84.82.82,0,0,1,1.21-1.11A5.39,5.39,0,0,0,50,55.53c2.48,0,3.36-1.17,3.39-1.22a.83.83,0,0,1,1.14-.19.81.81,0,0,1,.21,1.12C54.66,55.32,53.37,57.17,50,57.17Z"/><path class="cls-8" d="M32.94,49.3a5.23,5.23,0,0,0-3.8-2.24.82.82,0,1,0,0,1.64c1.61,0,3.12,2.28,3.66,3.34C33.16,52.81,33.87,50.44,32.94,49.3Z"/><path class="cls-8" d="M67.07,52c.54-1.06,2-3.34,3.66-3.34a.82.82,0,0,0,0-1.64,5.23,5.23,0,0,0-3.8,2.24C66.19,50.46,66.44,53.09,67.07,52Z"/></g></svg>