<svg id="Layer_1" data-name="Layer 1" xmlns="http://www.w3.org/2000/svg" viewBox="0 0 100 100"><defs><style>.cls-1{fill:#87304b;}.cls-2{fill:#f6a821;}.cls-3{fill:#c13355;}.cls-4{fill:#e58057;}.cls-5{fill:#ff9566;}.cls-6{fill:#6b1818;}.cls-7{fill:#cc6436;}</style></defs><title>avatar-prof-flat</title><path class="cls-1" d="M31.26,49.47V33.61c0-4.92,6.76-15,19-15s19,9.51,19,15.41V49.47Z"/><path class="cls-2" d="M50.14,73.9a26.63,26.63,0,0,0-21,10.24,2,2,0,0,0,0,2.55c7,8.2,35.5,8.16,42,0a2,2,0,0,0,0-2.49A26.63,26.63,0,0,0,50.14,73.9Z"/><path class="cls-3" d="M41.07,92,39.61,76.08,35,78.68l1,12.1Z"/><path class="cls-3" d="M59.22,92l1.46-15.94,4.56,2.6-1,12.1Z"/><ellipse class="cls-4" cx="69.16" cy="49.47" rx="6.1" ry="4.44" transform="translate(-14.72 63.39) rotate(-45)"/><ellipse class="cls-4" cx="31.26" cy="49.47" rx="4.44" ry="6.1" transform="translate(-25.83 36.59) rotate(-45)"/><path class="cls-5" d="M34.61,45.39c0,2.36,1.78,7.68,5.8,7.68s5.22-2.77,9.79-2.77S56,53.07,60,53.07s5.8-5.33,5.8-7.68V37.74a15.63,15.63,0,1,0-31.26,0v8Z"/><path class="cls-1" d="M39.56,26.34c2.35,2.35,18.12,5.43,25,5.43s11-2.87,11-8.61c0-3.55-2.12-6.28-5.4-6.28s-9.69,4.16-16.66,2S39.56,21.87,39.56,26.34Z"/><path class="cls-4" d="M56.68,74.71q-1.2-.3-2.44-.49V62.63a4.1,4.1,0,0,0-8.2,0V74.21q-1.17.18-2.3.46a6.51,6.51,0,1,0,12.94,0Z"/><path class="cls-1" d="M65.81,45.39c0,2.36-1.78,7.68-5.8,7.68s-5.22-2.77-9.79-2.77-5.77,2.77-9.79,2.77-5.8-5.33-5.8-7.68c0,0-2.47,11.37,1.73,15.57,3,3,6.86,6.35,13.87,6.35S61.11,63.93,64.08,61C68.28,56.76,65.81,45.39,65.81,45.39Z"/><path class="cls-3" d="M52.22,12.5c-4.51,0-12.15,6.22-15.54,9.61S22.21,34.32,24.9,37s14.86-.1,21.14-6.39,12.1-9.53,12.1-13S55.76,12.5,52.22,12.5Z"/><ellipse class="cls-3" cx="35.51" cy="19.77" rx="3.53" ry="2.1" transform="translate(-3.58 30.9) rotate(-45)"/><ellipse class="cls-6" cx="43.59" cy="44.53" rx="1.38" ry="2.51"/><ellipse class="cls-6" cx="56.76" cy="44.53" rx="1.38" ry="2.51"/><path class="cls-6" d="M46.83,36.2c-2,0-5.58.67-7.06,2.15a.82.82,0,0,0,1.16,1.16c1-1,3.91-1.67,5.9-1.67a.82.82,0,0,0,0-1.64Z"/><path class="cls-6" d="M53.52,37.84c2,0,4.95.72,5.9,1.67a.82.82,0,0,0,1.16-1.16c-1.48-1.48-5-2.15-7.06-2.15a.82.82,0,0,0,0,1.64Z"/><path class="cls-6" d="M53.57,54.31s-.92,1.22-3.39,1.22a5.39,5.39,0,0,1-3.84-1.31.82.82,0,0,0-1.21,1.11,7,7,0,0,0,5,1.84c3.4,0,4.69-1.85,4.74-1.93a.81.81,0,0,0-.21-1.12A.83.83,0,0,0,53.57,54.31Z"/><path class="cls-7" d="M33.22,49.3a5.23,5.23,0,0,0-3.8-2.24.82.82,0,1,0,0,1.64C31,48.7,32.53,51,33.07,52,33.44,52.81,34.15,50.44,33.22,49.3Z"/><path class="cls-7" d="M67.35,52c.54-1.06,2-3.34,3.66-3.34a.82.82,0,0,0,0-1.64,5.23,5.23,0,0,0-3.8,2.24C66.47,50.46,66.72,53.09,67.35,52Z"/></svg>